<svg width="24" height="24" viewBox="0 0 24 24" fill="none" xmlns="http://www.w3.org/2000/svg">
<path fill-rule="evenodd" clip-rule="evenodd" d="M5.21628 8.182C5.09546 8.32425 5 8.54827 5 8.82346V17.1765C5 17.4517 5.09546 17.6758 5.21628 17.818C5.33547 17.9583 5.45692 18 5.54875 18H18.4512C18.5431 18 18.6645 17.9583 18.7837 17.818C18.9045 17.6758 19 17.4517 19 17.1765V8.82346C19 8.54827 18.9045 8.32425 18.7837 8.182C18.6645 8.04166 18.5431 8 18.4512 8H5.54875C5.45692 8 5.33547 8.04166 5.21628 8.182ZM3 8.82346C3 7.42492 3.9955 6 5.54875 6H18.4512C20.0045 6 21 7.42492 21 8.82346V17.1765C21 18.5751 20.0045 20 18.4512 20H5.54875C3.9955 20 3 18.5751 3 17.1765V8.82346Z" fill="#2F3036"/>
<path fill-rule="evenodd" clip-rule="evenodd" d="M8 4C8 3.44772 8.44772 3 9 3H15C15.5523 3 16 3.44772 16 4C16 4.55228 15.5523 5 15 5H9C8.44772 5 8 4.55228 8 4Z" fill="#2F3036"/>
<path fill-rule="evenodd" clip-rule="evenodd" d="M12 11C10.8954 11 10 11.8954 10 13C10 14.1046 10.8954 15 12 15C13.1046 15 14 14.1046 14 13C14 11.8954 13.1046 11 12 11ZM8 13C8 10.7909 9.79086 9 12 9C14.2091 9 16 10.7909 16 13C16 15.2091 14.2091 17 12 17C9.79086 17 8 15.2091 8 13Z" fill="#2F3036"/>
<path d="M17 11C17.5523 11 18 10.5523 18 10C18 9.44772 17.5523 9 17 9C16.4477 9 16 9.44772 16 10C16 10.5523 16.4477 11 17 11Z" fill="#2F3036"/>
</svg>
