<svg width="24" height="24" viewBox="0 0 24 24" fill="none" xmlns="http://www.w3.org/2000/svg">
<path fill-rule="evenodd" clip-rule="evenodd" d="M17.6574 6.34319C18.0479 6.73371 18.0479 7.36688 17.6574 7.7574L13.4147 12L17.6574 16.2427C18.0479 16.6332 18.0479 17.2664 17.6574 17.6569C17.2669 18.0474 16.6337 18.0474 16.2432 17.6569L12.0005 13.4143L7.75789 17.6569C7.36736 18.0474 6.7342 18.0474 6.34367 17.6569C5.95315 17.2664 5.95315 16.6332 6.34367 16.2427L10.5863 12L6.34367 7.7574C5.95315 7.36688 5.95315 6.73371 6.34367 6.34319C6.7342 5.95266 7.36736 5.95266 7.75789 6.34319L12.0005 10.5858L16.2432 6.34319C16.6337 5.95266 17.2669 5.95266 17.6574 6.34319Z" />
</svg>
