<svg width="24" height="24" viewBox="0 0 24 24" fill="none" xmlns="http://www.w3.org/2000/svg">
<path fill-rule="evenodd" clip-rule="evenodd" d="M3.98047 7.38937C3.98047 6.83709 4.42818 6.38937 4.98047 6.38937H19.0124C19.5647 6.38937 20.0124 6.83709 20.0124 7.38937C20.0124 7.94166 19.5647 8.38937 19.0124 8.38937H4.98047C4.42818 8.38937 3.98047 7.94166 3.98047 7.38937Z" />
<path fill-rule="evenodd" clip-rule="evenodd" d="M8.98048 4.12793C8.98048 3.57564 9.4282 3.12793 9.98048 3.12793H13.9805C14.5328 3.12793 14.9805 3.57564 14.9805 4.12793C14.9805 4.68021 14.5328 5.12793 13.9805 5.12793H9.98048C9.4282 5.12793 8.98048 4.68021 8.98048 4.12793Z" />
<path fill-rule="evenodd" clip-rule="evenodd" d="M17.9238 6.70536C18.4761 6.70536 18.9238 7.15307 18.9238 7.70536V19.8709C18.9238 20.4232 18.4761 20.8709 17.9238 20.8709H6.22389C5.6716 20.8709 5.22389 20.4232 5.22389 19.8709V7.87464C5.22389 7.32235 5.6716 6.87464 6.22389 6.87464C6.77617 6.87464 7.22389 7.32235 7.22389 7.87464V18.8709H16.9238V7.70536C16.9238 7.15307 17.3715 6.70536 17.9238 6.70536Z" />
<path fill-rule="evenodd" clip-rule="evenodd" d="M13.9201 10.7978C14.4724 10.7978 14.9201 11.2456 14.9201 11.7978V16.4361C14.9201 16.9884 14.4724 17.4361 13.9201 17.4361C13.3678 17.4361 12.9201 16.9884 12.9201 16.4361V11.7978C12.9201 11.2456 13.3678 10.7978 13.9201 10.7978Z" />
<path fill-rule="evenodd" clip-rule="evenodd" d="M10.2203 10.7978C10.7726 10.7978 11.2203 11.2456 11.2203 11.7978V16.4361C11.2203 16.9884 10.7726 17.4361 10.2203 17.4361C9.66806 17.4361 9.22035 16.9884 9.22035 16.4361V11.7978C9.22035 11.2456 9.66806 10.7978 10.2203 10.7978Z" />
</svg>
