<svg width="24" height="24" viewBox="0 0 24 24" fill="none" xmlns="http://www.w3.org/2000/svg">
<path fill-rule="evenodd" clip-rule="evenodd" d="M4 13C4.55228 13 5 13.4477 5 14V16C5 16.5523 5.44772 17 6 17H18C18.5523 17 19 16.5523 19 16V14C19 13.4477 19.4477 13 20 13C20.5523 13 21 13.4477 21 14V16C21 17.6569 19.6569 19 18 19H6C4.34315 19 3 17.6569 3 16V14C3 13.4477 3.44772 13 4 13Z" fill="#2F3036"/>
<path fill-rule="evenodd" clip-rule="evenodd" d="M12 4C12.5523 4 13 4.44772 13 5L13 11.5858L14.2929 10.2929C14.6834 9.90237 15.3166 9.90237 15.7071 10.2929C16.0976 10.6834 16.0976 11.3166 15.7071 11.7071L12.7071 14.7071C12.5196 14.8946 12.2652 15 12 15C11.7348 15 11.4804 14.8946 11.2929 14.7071L8.29289 11.7071C7.90237 11.3166 7.90237 10.6834 8.29289 10.2929C8.68342 9.90237 9.31658 9.90237 9.70711 10.2929L11 11.5858L11 5C11 4.44772 11.4477 4 12 4Z" fill="#2F3036"/>
</svg>
