<svg width="24" height="24" viewBox="0 0 24 24" fill="none" xmlns="http://www.w3.org/2000/svg">
<path fill-rule="evenodd" clip-rule="evenodd" d="M15.8567 3.29289C15.4691 2.90529 14.8417 2.90197 14.45 3.28544L7.29998 10.2854C7.16634 10.4163 7.07206 10.582 7.02787 10.7637L6.04787 14.7937C5.96496 15.1346 6.0668 15.4941 6.31621 15.7409C6.56562 15.9876 6.92612 16.0856 7.26615 15.9991L11.1961 14.9991C11.3702 14.9548 11.5291 14.8645 11.6562 14.7376L18.7762 7.6276C18.9639 7.44011 19.0695 7.18569 19.0696 6.92035C19.0696 6.65501 18.9643 6.40052 18.7767 6.21289L15.8567 3.29289ZM8.38405 13.6509L8.90361 11.5144L15.1421 5.40676L16.6548 6.9195L10.4371 13.1285L8.38405 13.6509Z" fill="#2F3036"/>
<path d="M6 18.0596C5.44772 18.0596 5 18.5073 5 19.0596C5 19.6119 5.44772 20.0596 6 20.0596H18C18.5523 20.0596 19 19.6119 19 19.0596C19 18.5073 18.5523 18.0596 18 18.0596H6Z" fill="#2F3036"/>
</svg>
