<svg width="24" height="24" viewBox="0 0 24 24" fill="none" xmlns="http://www.w3.org/2000/svg">
<path fill-rule="evenodd" clip-rule="evenodd" d="M4 5C4 4.44772 4.44772 4 5 4H19C19.5523 4 20 4.44772 20 5V7.46897C20 7.7359 19.8933 7.99175 19.7036 8.17956L15.1244 12.7137V18C15.1244 18.3973 14.8892 18.757 14.5251 18.9162L10.4575 20.6955C10.1483 20.8307 9.79176 20.8009 9.50934 20.6162C9.22692 20.4315 9.05672 20.1168 9.05672 19.7793V12.9172L4.24356 7.35061C4.08645 7.16892 4 6.93675 4 6.69655V5ZM6 6V6.32417L10.8132 11.8908C10.9703 12.0725 11.0567 12.3046 11.0567 12.5448V18.2504L13.1244 17.3459V12.2966C13.1244 12.0296 13.2311 11.7738 13.4208 11.586L18 7.05185V6H6Z" fill="#2F3036"/>
</svg>
