<svg width="24" height="24" viewBox="0 0 24 24" fill="none" xmlns="http://www.w3.org/2000/svg">
<path fill-rule="evenodd" clip-rule="evenodd" d="M5.19847 6.25388C4.5068 6.96889 4.14258 7.84136 4.14258 8.51795C4.14258 9.31786 4.29202 9.78918 4.71261 10.3762C5.16938 11.0137 5.91148 11.7415 7.17469 12.9803C7.25802 13.062 7.34362 13.146 7.43155 13.2322C8.81889 14.5937 10.1767 15.9542 11.1872 16.9739C11.5589 17.349 11.8839 17.6782 12.1461 17.9445L17.1355 12.8326C17.169 12.7983 17.2046 12.7667 17.2422 12.7378C17.8996 12.0828 18.5157 11.4116 18.9888 10.7525C19.4908 10.0532 19.7688 9.45321 19.8302 8.96692C19.9376 8.08491 19.7188 7.24978 19.1868 6.61361C18.491 5.78011 17.5333 5.12169 16.5597 5.12169C14.7716 5.12169 13.7599 6.04825 12.8965 7.13318C12.7089 7.36884 12.4251 7.50743 12.124 7.51043C11.8228 7.51342 11.5363 7.38052 11.3441 7.14864L12.114 6.51047C11.3441 7.14864 11.3441 7.14864 11.3441 7.14864L11.3345 7.13747C11.3242 7.12553 11.307 7.10581 11.2832 7.07939C11.2354 7.02648 11.1617 6.9472 11.0649 6.85022C10.8701 6.65523 10.5873 6.39422 10.2389 6.13335C9.52126 5.59596 8.63185 5.13849 7.71885 5.12153C6.77327 5.10512 5.87806 5.55135 5.19847 6.25388ZM12.0677 5.04784C11.8848 4.8849 11.6736 4.7091 11.4377 4.53246C10.5754 3.88675 9.27643 3.14989 7.75529 3.12186C6.14105 3.09357 4.73841 3.8529 3.76098 4.86333C2.7955 5.8614 2.14258 7.20949 2.14258 8.51795C2.14258 9.70309 2.40456 10.5888 3.08684 11.541C3.65043 12.3276 4.52147 13.181 5.69568 14.3313C5.80475 14.4381 5.91644 14.5476 6.03074 14.6597C7.40912 16.0123 8.75988 17.3658 9.76656 18.3817C10.2698 18.8894 10.6867 19.3125 10.9776 19.6086C11.1231 19.7566 11.2371 19.8728 11.3147 19.9519L11.4326 20.0724C11.6208 20.2651 11.8792 20.3741 12.1485 20.374C12.4179 20.374 12.6758 20.2653 12.8639 20.0725L18.4832 14.3152C18.5119 14.2924 18.5396 14.268 18.5659 14.2419C19.2832 13.5323 20.0236 12.7406 20.6135 11.9189C21.1938 11.1105 21.693 10.1858 21.8148 9.21436L21.8152 9.2113C21.9815 7.8509 21.6518 6.44367 20.7212 5.3307C19.8627 4.30265 18.3973 3.12169 16.5597 3.12169C14.4511 3.12169 13.0582 4.03956 12.0677 5.04784ZM11.3441 7.14864L11.3458 7.15062L11.3448 7.14945" />
</svg>
