<svg width="24" height="24" viewBox="0 0 24 24" fill="none" xmlns="http://www.w3.org/2000/svg">
<path d="M11.4397 4.53246C11.6755 4.7091 11.8867 4.8849 12.0697 5.04784C13.0602 4.03956 14.4531 3.12169 16.5617 3.12169C18.3992 3.12169 19.8646 4.30265 20.7231 5.3307C21.6537 6.44367 21.9835 7.8509 21.8171 9.2113L21.8168 9.21436C21.6949 10.1858 21.1958 11.1105 20.6155 11.9189C20.0256 12.7406 19.2851 13.5323 18.5678 14.2419C18.5415 14.268 18.5139 14.2924 18.4851 14.3152L12.8659 20.0725C12.6778 20.2653 12.4198 20.374 12.1505 20.374C11.8811 20.3741 11.6227 20.2651 11.4345 20.0724L11.3166 19.9519C11.2391 19.8728 11.1251 19.7566 10.9796 19.6086C10.6886 19.3125 10.2717 18.8894 9.76851 18.3817C8.76183 17.3658 7.41107 16.0123 6.0327 14.6597L5.69763 14.3313C4.52342 13.181 3.65239 12.3276 3.08879 11.541C2.40651 10.5888 2.14453 9.70309 2.14453 8.51795C2.14453 7.20949 2.79745 5.8614 3.76293 4.86333C4.74036 3.8529 6.143 3.09357 7.75724 3.12186C9.27838 3.14989 10.5774 3.88675 11.4397 4.53246Z" />
</svg>
