<svg width="24" height="24" viewBox="0 0 24 24" fill="none" xmlns="http://www.w3.org/2000/svg">
<path fill-rule="evenodd" clip-rule="evenodd" d="M4.41843 16.4938L2.87816 17.7169C2.44566 18.0604 2.37348 18.6894 2.71694 19.1219C3.06039 19.5544 3.68943 19.6266 4.12193 19.2831L5.93114 17.8464C7.51371 19.0488 9.57838 20 12.156 20C14.5521 20 16.5572 18.9908 18.0985 17.7824C19.6374 16.5758 20.7677 15.13 21.4431 14.1407C22.1337 13.1292 22.1929 11.8257 21.5602 10.7616L21.5579 10.7577C21.0301 9.87918 20.1838 8.6235 19.0433 7.43386L21.1219 5.78315C21.5544 5.43969 21.6266 4.81066 21.2832 4.37816C20.9397 3.94566 20.3107 3.87347 19.8782 4.21693L17.5421 6.07203C16.0515 4.91232 14.1765 4 11.9653 4C9.42145 4 7.32591 5.21323 5.75468 6.61661C4.1828 8.02057 3.05787 9.68156 2.42743 10.7544L2.42464 10.7591C1.83018 11.7835 1.86655 13.0322 2.49176 14.0178C2.91013 14.6835 3.54883 15.5889 4.41843 16.4938ZM5.99182 15.2443C5.19816 14.4445 4.59765 13.6102 4.18401 12.9518L4.18121 12.9474C3.9503 12.5841 3.93913 12.1358 4.15332 11.765C4.72678 10.7896 5.72847 9.32163 7.08698 8.10825C8.44738 6.89317 10.0879 6 11.9653 6C13.4337 6 14.7586 6.54277 15.921 7.35938L14.2459 8.68957C13.6057 8.25435 12.8325 8 12 8C9.79087 8 8.00001 9.79086 8.00001 12C8.00001 12.5069 8.0943 12.9918 8.26631 13.4381L5.99182 15.2443ZM17.4692 8.68383C18.5315 9.76164 19.336 10.9432 19.842 11.7853C20.0664 12.164 20.0537 12.6287 19.7913 13.0131C19.1796 13.9091 18.1828 15.1748 16.8645 16.2085C15.5486 17.2402 13.9666 18 12.156 18C10.3256 18 8.79716 17.3919 7.55929 16.5535L9.43163 15.0666C10.1265 15.6492 11.0223 16 12 16C14.2091 16 16 14.2091 16 12C16 11.3496 15.8448 10.7354 15.5693 10.1926L17.4692 8.68383ZM12.5124 10.0662C12.3488 10.023 12.1771 10 12 10C10.8954 10 10 10.8954 10 12C10 12.0203 10.0003 12.0405 10.0009 12.0606L12.5124 10.0662ZM11.0658 13.7689L13.9346 11.4907C13.9773 11.6533 14 11.824 14 12C14 13.1046 13.1046 14 12 14C11.6626 14 11.3447 13.9164 11.0658 13.7689Z" />
</svg>
