<svg width="24" height="24" viewBox="0 0 24 24" fill="none" xmlns="http://www.w3.org/2000/svg">
<path fill-rule="evenodd" clip-rule="evenodd" d="M18.6439 11.0773L12.1588 5.07701C12.1586 5.07676 12.1583 5.07652 12.158 5.07628C12.1063 5.02898 12.0354 5 11.9534 5C11.8712 5 11.8088 5.02879 11.7672 5.06765L11.7602 5.07418L5.14867 11.1914C5.1484 11.1919 5.14808 11.1924 5.14772 11.193C5.14051 11.2046 5.12122 11.2388 5.08872 11.3212L5.06964 11.3695L5.04808 11.4168C5.03905 11.4366 5.03494 11.4469 5.03264 11.453C5.03105 11.4571 5.02865 11.4637 5.02512 11.4744C5.00904 11.5326 5.00244 11.5637 5 11.5764V18.6574C5 18.7934 5.13755 19 5.4032 19H18.5968C18.8624 19 19 18.7934 19 18.6574V11.5593C19 11.5184 18.9917 11.4829 18.9755 11.4479C18.9583 11.4108 18.9282 11.3666 18.8797 11.3228L18.7027 11.1632L18.6439 11.0773ZM3.10814 10.9034C3.14419 10.7862 3.18024 10.6925 3.2283 10.5871C3.34846 10.2826 3.50467 9.98975 3.78104 9.73206L10.4019 3.60615C11.267 2.79795 12.6368 2.79795 13.514 3.60615L20.1348 9.73206C20.1709 9.7672 20.219 9.83748 20.219 9.83748C20.6996 10.2709 21 10.8799 21 11.5593V18.6574C21 19.9458 19.9186 21 18.5968 21H5.4032C4.08144 21 3 19.9458 3 18.6574V11.5593C3 11.325 3.04806 11.1142 3.10814 10.9034Z" fill="#2F3036"/>
<path d="M9 16C9 15.4477 9.44772 15 10 15H14C14.5523 15 15 15.4477 15 16C15 16.5523 14.5523 17 14 17H10C9.44772 17 9 16.5523 9 16Z" fill="#2F3036"/>
</svg>
