<svg width="24" height="24" viewBox="0 0 24 24" fill="none" xmlns="http://www.w3.org/2000/svg">
<path d="M12.0048 4.40095C16.1963 4.40095 19.6086 7.81316 19.6086 12.0048C19.6086 16.1963 16.1963 19.6086 12.0048 19.6086C7.81316 19.6086 4.40095 16.1963 4.40095 12.0048C4.40095 7.81316 7.81316 4.40095 12.0048 4.40095ZM12.0048 2.5C6.75813 2.5 2.5 6.75813 2.5 12.0048C2.5 17.2514 6.75813 21.5095 12.0048 21.5095C17.2514 21.5095 21.5095 17.2514 21.5095 12.0048C21.5095 6.75813 17.2514 2.5 12.0048 2.5Z" />
<path d="M12.0035 7.21436C11.4902 7.21436 11.0625 7.63256 11.0625 8.15533C11.0625 8.67809 11.4807 9.0963 12.0035 9.0963C12.5262 9.0963 12.9444 8.67809 12.9444 8.15533C12.9444 7.63256 12.5262 7.21436 12.0035 7.21436Z" />
<path fill-rule="evenodd" clip-rule="evenodd" d="M19.5 12C19.5 16.1421 16.1421 19.5 12 19.5C7.85786 19.5 4.5 16.1421 4.5 12C4.5 7.85786 7.85786 4.5 12 4.5C16.1421 4.5 19.5 7.85786 19.5 12ZM21.5 12C21.5 17.2467 17.2467 21.5 12 21.5C6.75329 21.5 2.5 17.2467 2.5 12C2.5 6.75329 6.75329 2.5 12 2.5C17.2467 2.5 21.5 6.75329 21.5 12ZM13 8.2002C13 8.75248 12.5523 9.2002 12 9.2002C11.4477 9.2002 11 8.75248 11 8.2002C11 7.64791 11.4477 7.2002 12 7.2002C12.5523 7.2002 13 7.64791 13 8.2002ZM12 10.25C12.5523 10.25 13 10.6977 13 11.25V15.6798C13 16.2321 12.5523 16.6798 12 16.6798C11.4477 16.6798 11 16.2321 11 15.6798V11.25C11 10.6977 11.4477 10.25 12 10.25Z" />
</svg>
