<svg width="24" height="24" viewBox="0 0 24 24" fill="none" xmlns="http://www.w3.org/2000/svg">
<path fill-rule="evenodd" clip-rule="evenodd" d="M12 12C13.1046 12 14 11.1046 14 10C14 8.89543 13.1046 8 12 8C10.8954 8 10 8.89543 10 10C10 11.1046 10.8954 12 12 12ZM12 14C14.2091 14 16 12.2091 16 10C16 7.79086 14.2091 6 12 6C9.79086 6 8 7.79086 8 10C8 12.2091 9.79086 14 12 14Z" />
<path fill-rule="evenodd" clip-rule="evenodd" d="M15.3055 16.6458C16.9198 14.3668 18 11.8405 18 10.2051C18 6.73009 15.2663 4 12 4C8.73372 4 6 6.73009 6 10.2051C6 11.8405 7.08016 14.3668 8.69453 16.6458C9.47049 17.7413 10.2881 18.6613 11.0054 19.2831C11.3645 19.5944 11.6602 19.7975 11.8784 19.9137C11.928 19.9401 11.9684 19.9592 12 19.973C12.0316 19.9592 12.072 19.9401 12.1216 19.9137C12.3398 19.7975 12.6355 19.5944 12.9946 19.2831C13.7119 18.6613 14.5295 17.7413 15.3055 16.6458ZM12 22C14.5 22 20 14.7367 20 10.2051C20 5.67356 16.4183 2 12 2C7.58172 2 4 5.67356 4 10.2051C4 14.7367 9.5 22 12 22Z" />
</svg>
