<svg width="24" height="24" viewBox="0 0 24 24" fill="none" xmlns="http://www.w3.org/2000/svg">
<g clip-path="url(#clip0_598_24562)">
<path fill-rule="evenodd" clip-rule="evenodd" d="M12.02 11.04C13.6879 11.04 15.04 9.6879 15.04 8.02C15.04 6.3521 13.6879 5 12.02 5C10.3521 5 9 6.3521 9 8.02C9 9.6879 10.3521 11.04 12.02 11.04ZM12.02 13.04C14.7925 13.04 17.04 10.7925 17.04 8.02C17.04 5.24753 14.7925 3 12.02 3C9.24753 3 7 5.24753 7 8.02C7 10.7925 9.24753 13.04 12.02 13.04ZM6.00079 19.8741C6.03477 20.4212 5.62144 20.8945 5.07356 20.9334C4.52267 20.9725 4.04435 20.5577 4.00521 20.0068L4.97247 19.938C4.00521 20.0067 4.00516 20.006 4.00511 20.0053L4.005 20.0037L4.00476 20.0001L4.00423 19.9915L4.00303 19.9689C4.0022 19.9514 4.00136 19.9291 4.00078 19.9022C3.99961 19.8486 3.99945 19.7768 4.00247 19.6893C4.0085 19.5147 4.02726 19.2752 4.07688 18.9921C4.17579 18.4276 4.40065 17.6715 4.90747 16.9126C5.96073 15.3354 8.05198 14 11.9458 14C15.8458 14 17.9563 15.3551 19.034 16.937C19.5534 17.6993 19.7934 18.4592 19.9042 19.0273C19.9598 19.3123 19.9837 19.5534 19.9936 19.7291C19.9985 19.8172 20 19.8895 20 19.9433C20 19.9703 19.9997 19.9927 19.9992 20.0102L19.9986 20.0329L19.9982 20.0414L19.9981 20.045L19.998 20.0466C19.998 20.0473 19.9979 20.048 19.0281 20.0014L19.9979 20.048C19.9714 20.5997 19.5027 21.0254 18.951 20.9988C18.4023 20.9725 17.9782 20.5085 17.9999 19.9607L18 19.9444C18 19.925 17.9995 19.8898 17.9967 19.8412C17.9913 19.7435 17.977 19.5939 17.9412 19.4102C17.8691 19.0408 17.7134 18.5507 17.3812 18.063C16.7556 17.1449 15.3396 16 11.9458 16C8.54585 16 7.16555 17.1325 6.5707 18.0233C6.25347 18.4983 6.11014 18.9762 6.04686 19.3373C6.0154 19.5168 6.00457 19.6629 6.00128 19.7583C5.99964 19.8058 5.9999 19.84 6.0003 19.8587L6.00079 19.8741ZM9.96917 19.0002C9.41699 18.9892 8.96044 19.4279 8.94942 19.9801C8.93841 20.5322 9.3771 20.9888 9.92928 20.9998L13.9393 21.0798C14.4915 21.0908 14.948 20.6521 14.959 20.1C14.97 19.5478 14.5313 19.0912 13.9792 19.0802L9.96917 19.0002Z" fill="#2F3036"/>
</g>
<defs>
<clipPath id="clip0_598_24562">
<rect width="15.98" height="18.04" fill="white" transform="translate(4 3)"/>
</clipPath>
</defs>
</svg>
