<svg className="no-game" width="40" height="40" viewBox="0 0 40 40" fill="none" xmlns="http://www.w3.org/2000/svg">
<path fill-rule="evenodd" clip-rule="evenodd" d="M29.4283 10.5721C30.0792 11.223 30.0792 12.2783 29.4283 12.9292L22.3573 20.0002L29.4283 27.0713C30.0792 27.7222 30.0792 28.7774 29.4283 29.4283C28.7774 30.0792 27.7222 30.0792 27.0713 29.4283L20.0002 22.3573L12.9292 29.4283C12.2783 30.0792 11.223 30.0792 10.5721 29.4283C9.92127 28.7774 9.92127 27.7222 10.5721 27.0713L17.6432 20.0002L10.5721 12.9292C9.92127 12.2783 9.92127 11.223 10.5721 10.5721C11.223 9.92127 12.2783 9.92127 12.9292 10.5721L20.0002 17.6432L27.0713 10.5721C27.7222 9.92127 28.7774 9.92127 29.4283 10.5721Z" fill="#898C9B"/>
</svg>
