<svg width="24" height="24" viewBox="0 0 24 24" fill="none" xmlns="http://www.w3.org/2000/svg">
<path fill-rule="evenodd" clip-rule="evenodd" d="M6.01093 3C5.49752 3 5.06752 3.3888 5.01598 3.89962L5.01571 3.9023L5.01521 3.90742L5.0136 3.92416C5.01233 3.93771 5.01061 3.95665 5.00885 3.97791C5.00647 4.00674 5 4.08523 5 4.15647V6.17071C4.68722 6.06015 4.35064 6 4 6C2.34315 6 1 7.34315 1 9C1 10.6569 2.34315 12 4 12C4.47681 12 4.92763 11.8888 5.32794 11.6908C6.12095 14.4011 8.27946 16.5064 11.0028 16.9243C11.001 16.9493 11 16.9745 11 17V19H8C7.44772 19 7 19.4477 7 20C7 20.5523 7.44772 21 8 21H16C16.5523 21 17 20.5523 17 20C17 19.4477 16.5523 19 16 19H13V17C13 16.9745 12.999 16.9493 12.9972 16.9243C15.7205 16.5064 17.8791 14.4011 18.6721 11.6908C19.0724 11.8888 19.5232 12 20 12C21.6569 12 23 10.6569 23 9C23 7.34315 21.6569 6 20 6C19.6494 6 19.3128 6.06015 19 6.17071V4.15647C19 4.12294 18.9983 4.08944 18.9949 4.05609L18.9948 4.0544L18.9939 4.04527L18.9911 4.01402C18.9899 3.99905 18.9893 3.99011 18.9891 3.98627L18.989 3.98433C18.9806 3.43927 18.5361 3 17.9891 3H6.01093ZM17 9V5H7V9V9.39218C7 12.5798 9.32942 15 12 15C14.6706 15 17 12.5798 17 9.39218V9ZM19 9C19 9.55229 19.4477 10 20 10C20.5523 10 21 9.55229 21 9C21 8.44772 20.5523 8 20 8C19.4477 8 19 8.44772 19 9ZM4 8C4.55228 8 5 8.44772 5 9C5 9.55229 4.55228 10 4 10C3.44772 10 3 9.55229 3 9C3 8.44772 3.44772 8 4 8Z" fill="#2F3036"/>
</svg>
