<svg width="24" height="24" viewBox="0 0 24 24" fill="none" xmlns="http://www.w3.org/2000/svg">
<path fill-rule="evenodd" clip-rule="evenodd" d="M15.3905 13.9755C17.2437 11.4425 17.0261 7.86754 14.7377 5.57921C12.2089 3.05042 8.10897 3.05042 5.58019 5.57921C3.0514 8.108 3.0514 12.208 5.58019 14.7368C7.86846 17.025 11.4433 17.2427 13.9763 15.3897L18.3732 19.7866C18.7637 20.1771 19.3968 20.1771 19.7874 19.7866C20.1779 19.396 20.1779 18.7629 19.7874 18.3724L15.3905 13.9755ZM13.3235 6.99342C15.0713 8.74116 15.0713 11.5748 13.3235 13.3225C11.5758 15.0703 8.74214 15.0703 6.9944 13.3225C5.24666 11.5748 5.24666 8.74116 6.9944 6.99342C8.74214 5.24568 11.5758 5.24568 13.3235 6.99342Z" />
</svg>
