<svg width="24" height="24" viewBox="0 0 24 24" fill="none" xmlns="http://www.w3.org/2000/svg">
<path fill-rule="evenodd" clip-rule="evenodd" d="M16.5 8C17.3284 8 18 7.32843 18 6.5C18 5.67157 17.3284 5 16.5 5C15.6716 5 15 5.67157 15 6.5C15 7.32843 15.6716 8 16.5 8ZM16.5 10C18.433 10 20 8.433 20 6.5C20 4.567 18.433 3 16.5 3C14.567 3 13 4.567 13 6.5C13 8.433 14.567 10 16.5 10Z" />
<path fill-rule="evenodd" clip-rule="evenodd" d="M16.5 19C17.3284 19 18 18.3284 18 17.5C18 16.6716 17.3284 16 16.5 16C15.6716 16 15 16.6716 15 17.5C15 18.3284 15.6716 19 16.5 19ZM16.5 21C18.433 21 20 19.433 20 17.5C20 15.567 18.433 14 16.5 14C14.567 14 13 15.567 13 17.5C13 19.433 14.567 21 16.5 21Z" />
<path fill-rule="evenodd" clip-rule="evenodd" d="M7.5 14C8.32843 14 9 13.3284 9 12.5C9 11.6716 8.32843 11 7.5 11C6.67157 11 6 11.6716 6 12.5C6 13.3284 6.67157 14 7.5 14ZM7.5 16C9.433 16 11 14.433 11 12.5C11 10.567 9.433 9 7.5 9C5.567 9 4 10.567 4 12.5C4 14.433 5.567 16 7.5 16Z" />
<path fill-rule="evenodd" clip-rule="evenodd" d="M14.8575 7.4855C15.1416 7.95908 14.9881 8.57334 14.5145 8.85749L9.5145 11.8575L8.4855 10.1425L13.4855 7.14251C13.9591 6.85836 14.5733 7.01192 14.8575 7.4855Z" />
<path fill-rule="evenodd" clip-rule="evenodd" d="M8.4855 14.8575L13.4855 17.8575C13.9591 18.1416 14.5733 17.9881 14.8575 17.5145C15.1416 17.0409 14.9881 16.4267 14.5145 16.1425L9.5145 13.1425L8.4855 14.8575Z" />
</svg>
