<svg width="24" height="24" viewBox="0 0 24 24" fill="none" xmlns="http://www.w3.org/2000/svg">
<path fill-rule="evenodd" clip-rule="evenodd" d="M12 14C13.1046 14 14 13.1046 14 12C14 10.8954 13.1046 10 12 10C10.8954 10 10 10.8954 10 12C10 13.1046 10.8954 14 12 14ZM16 12C16 14.2091 14.2092 16 12 16C9.79088 16 8.00002 14.2091 8.00002 12C8.00002 9.79086 9.79088 8 12 8C14.2092 8 16 9.79086 16 12Z" />
<path fill-rule="evenodd" clip-rule="evenodd" d="M12.156 18C7.95076 18 5.33893 14.7902 4.18401 12.9518L4.18121 12.9474C3.9503 12.5841 3.93913 12.1358 4.15332 11.765C4.72678 10.7896 5.72847 9.32163 7.08698 8.10825C8.44738 6.89317 10.0879 6 11.9653 6C13.8446 6 15.4889 6.88903 16.8582 8.10335C18.2261 9.31631 19.2431 10.7885 19.842 11.7853C20.0664 12.164 20.0537 12.6287 19.7913 13.0131C19.1796 13.9091 18.1828 15.1748 16.8645 16.2085C15.5486 17.2402 13.9666 18 12.156 18ZM2.49176 14.0178C3.72117 15.974 6.8531 20 12.156 20C14.5521 20 16.5572 18.9908 18.0985 17.7824C19.6373 16.5758 20.7677 15.13 21.4431 14.1407C22.1337 13.1292 22.1929 11.8257 21.5602 10.7616L21.5579 10.7577C20.9053 9.67145 19.7658 8.00863 18.1852 6.60696C16.605 5.20573 14.5073 4 11.9653 4C9.42145 4 7.32591 5.21323 5.75468 6.61661C4.1828 8.02057 3.05787 9.68156 2.42743 10.7544L2.42464 10.7591C1.83018 11.7835 1.86655 13.0322 2.49176 14.0178Z" />
</svg>
