<svg width="24" height="24" viewBox="0 0 24 24" fill="none" xmlns="http://www.w3.org/2000/svg">
<path fill-rule="evenodd" clip-rule="evenodd" d="M6 8C6 7.44772 6.44772 7 7 7L19 7C19.5523 7 20 7.44772 20 8C20 8.55229 19.5523 9 19 9L7 9C6.44772 9 6 8.55228 6 8Z" />
<path fill-rule="evenodd" clip-rule="evenodd" d="M15.2929 4.29289C15.6834 3.90237 16.3166 3.90237 16.7071 4.29289L19.7071 7.29289C20.0976 7.68342 20.0976 8.31658 19.7071 8.70711L16.7071 11.7071C16.3166 12.0976 15.6834 12.0976 15.2929 11.7071C14.9024 11.3166 14.9024 10.6834 15.2929 10.2929L17.5858 8L15.2929 5.70711C14.9024 5.31658 14.9024 4.68342 15.2929 4.29289Z" />
<path fill-rule="evenodd" clip-rule="evenodd" d="M18 16C18 15.4477 17.5523 15 17 15L5 15C4.44772 15 4 15.4477 4 16C4 16.5523 4.44772 17 5 17L17 17C17.5523 17 18 16.5523 18 16Z" />
<path fill-rule="evenodd" clip-rule="evenodd" d="M8.70711 12.2929C8.31658 11.9024 7.68342 11.9024 7.29289 12.2929L4.29289 15.2929C3.90237 15.6834 3.90237 16.3166 4.29289 16.7071L7.29289 19.7071C7.68342 20.0976 8.31658 20.0976 8.70711 19.7071C9.09763 19.3166 9.09763 18.6834 8.70711 18.2929L6.41421 16L8.70711 13.7071C9.09763 13.3166 9.09763 12.6834 8.70711 12.2929Z" />
</svg>
